<svg xmlns="http://www.w3.org/2000/svg" version="1.1" xmlns:xlink="http://www.w3.org/1999/xlink" xmlns:svgjs="http://svgjs.dev/svgjs" width="1920" height="1080" preserveAspectRatio="none" viewBox="0 0 1920 1080"><g mask="url(&quot;#SvgjsMask1029&quot;)" fill="none"><rect width="1920" height="1080" x="0" y="0" fill="#0e2a47"></rect><path d="M141.73 182.69L206.68 220.19L206.68 295.19L141.73 332.69L76.77 295.19L76.77 220.19zM206.68 520.19L271.63 557.69L271.63 632.69L206.68 670.19L141.73 632.69L141.73 557.69zM141.73 632.69L206.68 670.19L206.68 745.19L141.73 782.69L76.77 745.19L76.77 670.19zM271.63 407.69L336.59 445.19L336.59 520.19L271.63 557.69L206.68 520.19L206.68 445.19zM271.63 632.69L336.59 670.19L336.59 745.19L271.63 782.69L206.68 745.19L206.68 670.19zM271.63 1082.69L336.59 1120.19L336.59 1195.19L271.63 1232.69L206.68 1195.19L206.68 1120.19zM466.5 745.19L531.45 782.69L531.45 857.69L466.5 895.19L401.54 857.69L401.54 782.69zM596.4 70.19L661.36 107.69L661.36 182.69L596.4 220.19L531.45 182.69L531.45 107.69zM531.45 182.69L596.4 220.19L596.4 295.19L531.45 332.69L466.5 295.19L466.5 220.19zM726.31 520.19L791.27 557.69L791.27 632.69L726.31 670.19L661.36 632.69L661.36 557.69zM661.36 1082.69L726.31 1120.19L726.31 1195.19L661.36 1232.69L596.4 1195.19L596.4 1120.19zM791.26 -42.31L856.22 -4.81L856.22 70.19L791.26 107.69L726.31 70.19L726.31 -4.81zM791.26 182.69L856.22 220.19L856.22 295.19L791.26 332.69L726.31 295.19L726.31 220.19zM856.22 295.19L921.17 332.69L921.17 407.69L856.22 445.19L791.26 407.69L791.26 332.69zM791.26 407.69L856.22 445.19L856.22 520.19L791.26 557.69L726.31 520.19L726.31 445.19zM856.22 745.19L921.17 782.69L921.17 857.69L856.22 895.19L791.26 857.69L791.26 782.69zM986.13 295.19L1051.08 332.69L1051.08 407.69L986.13 445.19L921.17 407.69L921.17 332.69zM921.17 407.69L986.13 445.19L986.13 520.19L921.17 557.69L856.22 520.19L856.22 445.19zM1116.03 745.19L1180.99 782.69L1180.99 857.69L1116.03 895.19L1051.08 857.69L1051.08 782.69zM1245.94 295.19L1310.89 332.69L1310.89 407.69L1245.94 445.19L1180.99 407.69L1180.99 332.69zM1245.94 745.19L1310.89 782.69L1310.89 857.69L1245.94 895.19L1180.99 857.69L1180.99 782.69zM1310.89 182.69L1375.85 220.19L1375.85 295.19L1310.89 332.69L1245.94 295.19L1245.94 220.19zM1375.85 520.19L1440.8 557.69L1440.8 632.69L1375.85 670.19L1310.89 632.69L1310.89 557.69zM1440.8 182.69L1505.76 220.19L1505.76 295.19L1440.8 332.69L1375.85 295.19L1375.85 220.19zM1440.8 407.69L1505.76 445.19L1505.76 520.19L1440.8 557.69L1375.85 520.19L1375.85 445.19zM1570.71 407.69L1635.66 445.19L1635.66 520.19L1570.71 557.69L1505.76 520.19L1505.76 445.19zM1635.66 970.19L1700.62 1007.69L1700.62 1082.69L1635.66 1120.19L1570.71 1082.69L1570.71 1007.69zM1700.62 -42.31L1765.57 -4.81L1765.57 70.19L1700.62 107.69L1635.66 70.19L1635.66 -4.81zM1700.62 407.69L1765.57 445.19L1765.57 520.19L1700.62 557.69L1635.66 520.19L1635.66 445.19zM1830.52 -42.31L1895.48 -4.81L1895.48 70.19L1830.52 107.69L1765.57 70.19L1765.57 -4.81zM1830.52 182.69L1895.48 220.19L1895.48 295.19L1830.52 332.69L1765.57 295.19L1765.57 220.19zM1895.48 295.19L1960.43 332.69L1960.43 407.69L1895.48 445.19L1830.52 407.69L1830.52 332.69zM1830.52 632.69L1895.48 670.19L1895.48 745.19L1830.52 782.69L1765.57 745.19L1765.57 670.19z" stroke="#03305d" stroke-width="2"></path><path d="M134.23 182.69 a7.5 7.5 0 1 0 15 0 a7.5 7.5 0 1 0 -15 0zM199.18 220.19 a7.5 7.5 0 1 0 15 0 a7.5 7.5 0 1 0 -15 0zM199.18 295.19 a7.5 7.5 0 1 0 15 0 a7.5 7.5 0 1 0 -15 0zM134.23 332.69 a7.5 7.5 0 1 0 15 0 a7.5 7.5 0 1 0 -15 0zM69.27 295.19 a7.5 7.5 0 1 0 15 0 a7.5 7.5 0 1 0 -15 0zM69.27 220.19 a7.5 7.5 0 1 0 15 0 a7.5 7.5 0 1 0 -15 0zM199.18 520.19 a7.5 7.5 0 1 0 15 0 a7.5 7.5 0 1 0 -15 0zM264.13 557.69 a7.5 7.5 0 1 0 15 0 a7.5 7.5 0 1 0 -15 0zM264.13 632.69 a7.5 7.5 0 1 0 15 0 a7.5 7.5 0 1 0 -15 0zM199.18 670.19 a7.5 7.5 0 1 0 15 0 a7.5 7.5 0 1 0 -15 0zM134.23 632.69 a7.5 7.5 0 1 0 15 0 a7.5 7.5 0 1 0 -15 0zM134.23 557.69 a7.5 7.5 0 1 0 15 0 a7.5 7.5 0 1 0 -15 0zM199.18 745.19 a7.5 7.5 0 1 0 15 0 a7.5 7.5 0 1 0 -15 0zM134.23 782.69 a7.5 7.5 0 1 0 15 0 a7.5 7.5 0 1 0 -15 0zM69.27 745.19 a7.5 7.5 0 1 0 15 0 a7.5 7.5 0 1 0 -15 0zM69.27 670.19 a7.5 7.5 0 1 0 15 0 a7.5 7.5 0 1 0 -15 0zM264.13 407.69 a7.5 7.5 0 1 0 15 0 a7.5 7.5 0 1 0 -15 0zM329.09 445.19 a7.5 7.5 0 1 0 15 0 a7.5 7.5 0 1 0 -15 0zM329.09 520.19 a7.5 7.5 0 1 0 15 0 a7.5 7.5 0 1 0 -15 0zM199.18 445.19 a7.5 7.5 0 1 0 15 0 a7.5 7.5 0 1 0 -15 0zM329.09 670.19 a7.5 7.5 0 1 0 15 0 a7.5 7.5 0 1 0 -15 0zM329.09 745.19 a7.5 7.5 0 1 0 15 0 a7.5 7.5 0 1 0 -15 0zM264.13 782.69 a7.5 7.5 0 1 0 15 0 a7.5 7.5 0 1 0 -15 0zM264.13 1082.69 a7.5 7.5 0 1 0 15 0 a7.5 7.5 0 1 0 -15 0zM329.09 1120.19 a7.5 7.5 0 1 0 15 0 a7.5 7.5 0 1 0 -15 0zM329.09 1195.19 a7.5 7.5 0 1 0 15 0 a7.5 7.5 0 1 0 -15 0zM264.13 1232.69 a7.5 7.5 0 1 0 15 0 a7.5 7.5 0 1 0 -15 0zM199.18 1195.19 a7.5 7.5 0 1 0 15 0 a7.5 7.5 0 1 0 -15 0zM199.18 1120.19 a7.5 7.5 0 1 0 15 0 a7.5 7.5 0 1 0 -15 0zM459 745.19 a7.5 7.5 0 1 0 15 0 a7.5 7.5 0 1 0 -15 0zM523.95 782.69 a7.5 7.5 0 1 0 15 0 a7.5 7.5 0 1 0 -15 0zM523.95 857.69 a7.5 7.5 0 1 0 15 0 a7.5 7.5 0 1 0 -15 0zM459 895.19 a7.5 7.5 0 1 0 15 0 a7.5 7.5 0 1 0 -15 0zM394.04 857.69 a7.5 7.5 0 1 0 15 0 a7.5 7.5 0 1 0 -15 0zM394.04 782.69 a7.5 7.5 0 1 0 15 0 a7.5 7.5 0 1 0 -15 0zM588.9 70.19 a7.5 7.5 0 1 0 15 0 a7.5 7.5 0 1 0 -15 0zM653.86 107.69 a7.5 7.5 0 1 0 15 0 a7.5 7.5 0 1 0 -15 0zM653.86 182.69 a7.5 7.5 0 1 0 15 0 a7.5 7.5 0 1 0 -15 0zM588.9 220.19 a7.5 7.5 0 1 0 15 0 a7.5 7.5 0 1 0 -15 0zM523.95 182.69 a7.5 7.5 0 1 0 15 0 a7.5 7.5 0 1 0 -15 0zM523.95 107.69 a7.5 7.5 0 1 0 15 0 a7.5 7.5 0 1 0 -15 0zM588.9 295.19 a7.5 7.5 0 1 0 15 0 a7.5 7.5 0 1 0 -15 0zM523.95 332.69 a7.5 7.5 0 1 0 15 0 a7.5 7.5 0 1 0 -15 0zM459 295.19 a7.5 7.5 0 1 0 15 0 a7.5 7.5 0 1 0 -15 0zM459 220.19 a7.5 7.5 0 1 0 15 0 a7.5 7.5 0 1 0 -15 0zM718.81 520.19 a7.5 7.5 0 1 0 15 0 a7.5 7.5 0 1 0 -15 0zM783.77 557.69 a7.5 7.5 0 1 0 15 0 a7.5 7.5 0 1 0 -15 0zM783.77 632.69 a7.5 7.5 0 1 0 15 0 a7.5 7.5 0 1 0 -15 0zM718.81 670.19 a7.5 7.5 0 1 0 15 0 a7.5 7.5 0 1 0 -15 0zM653.86 632.69 a7.5 7.5 0 1 0 15 0 a7.5 7.5 0 1 0 -15 0zM653.86 557.69 a7.5 7.5 0 1 0 15 0 a7.5 7.5 0 1 0 -15 0zM653.86 1082.69 a7.5 7.5 0 1 0 15 0 a7.5 7.5 0 1 0 -15 0zM718.81 1120.19 a7.5 7.5 0 1 0 15 0 a7.5 7.5 0 1 0 -15 0zM718.81 1195.19 a7.5 7.5 0 1 0 15 0 a7.5 7.5 0 1 0 -15 0zM653.86 1232.69 a7.5 7.5 0 1 0 15 0 a7.5 7.5 0 1 0 -15 0zM588.9 1195.19 a7.5 7.5 0 1 0 15 0 a7.5 7.5 0 1 0 -15 0zM588.9 1120.19 a7.5 7.5 0 1 0 15 0 a7.5 7.5 0 1 0 -15 0zM783.76 -42.31 a7.5 7.5 0 1 0 15 0 a7.5 7.5 0 1 0 -15 0zM848.72 -4.81 a7.5 7.5 0 1 0 15 0 a7.5 7.5 0 1 0 -15 0zM848.72 70.19 a7.5 7.5 0 1 0 15 0 a7.5 7.5 0 1 0 -15 0zM783.76 107.69 a7.5 7.5 0 1 0 15 0 a7.5 7.5 0 1 0 -15 0zM718.81 70.19 a7.5 7.5 0 1 0 15 0 a7.5 7.5 0 1 0 -15 0zM718.81 -4.81 a7.5 7.5 0 1 0 15 0 a7.5 7.5 0 1 0 -15 0zM783.76 182.69 a7.5 7.5 0 1 0 15 0 a7.5 7.5 0 1 0 -15 0zM848.72 220.19 a7.5 7.5 0 1 0 15 0 a7.5 7.5 0 1 0 -15 0zM848.72 295.19 a7.5 7.5 0 1 0 15 0 a7.5 7.5 0 1 0 -15 0zM783.76 332.69 a7.5 7.5 0 1 0 15 0 a7.5 7.5 0 1 0 -15 0zM718.81 295.19 a7.5 7.5 0 1 0 15 0 a7.5 7.5 0 1 0 -15 0zM718.81 220.19 a7.5 7.5 0 1 0 15 0 a7.5 7.5 0 1 0 -15 0zM913.67 332.69 a7.5 7.5 0 1 0 15 0 a7.5 7.5 0 1 0 -15 0zM913.67 407.69 a7.5 7.5 0 1 0 15 0 a7.5 7.5 0 1 0 -15 0zM848.72 445.19 a7.5 7.5 0 1 0 15 0 a7.5 7.5 0 1 0 -15 0zM783.76 407.69 a7.5 7.5 0 1 0 15 0 a7.5 7.5 0 1 0 -15 0zM848.72 520.19 a7.5 7.5 0 1 0 15 0 a7.5 7.5 0 1 0 -15 0zM783.76 557.69 a7.5 7.5 0 1 0 15 0 a7.5 7.5 0 1 0 -15 0zM718.81 445.19 a7.5 7.5 0 1 0 15 0 a7.5 7.5 0 1 0 -15 0zM848.72 745.19 a7.5 7.5 0 1 0 15 0 a7.5 7.5 0 1 0 -15 0zM913.67 782.69 a7.5 7.5 0 1 0 15 0 a7.5 7.5 0 1 0 -15 0zM913.67 857.69 a7.5 7.5 0 1 0 15 0 a7.5 7.5 0 1 0 -15 0zM848.72 895.19 a7.5 7.5 0 1 0 15 0 a7.5 7.5 0 1 0 -15 0zM783.76 857.69 a7.5 7.5 0 1 0 15 0 a7.5 7.5 0 1 0 -15 0zM783.76 782.69 a7.5 7.5 0 1 0 15 0 a7.5 7.5 0 1 0 -15 0zM978.63 295.19 a7.5 7.5 0 1 0 15 0 a7.5 7.5 0 1 0 -15 0zM1043.58 332.69 a7.5 7.5 0 1 0 15 0 a7.5 7.5 0 1 0 -15 0zM1043.58 407.69 a7.5 7.5 0 1 0 15 0 a7.5 7.5 0 1 0 -15 0zM978.63 445.19 a7.5 7.5 0 1 0 15 0 a7.5 7.5 0 1 0 -15 0zM978.63 520.19 a7.5 7.5 0 1 0 15 0 a7.5 7.5 0 1 0 -15 0zM913.67 557.69 a7.5 7.5 0 1 0 15 0 a7.5 7.5 0 1 0 -15 0zM1108.53 745.19 a7.5 7.5 0 1 0 15 0 a7.5 7.5 0 1 0 -15 0zM1173.49 782.69 a7.5 7.5 0 1 0 15 0 a7.5 7.5 0 1 0 -15 0zM1173.49 857.69 a7.5 7.5 0 1 0 15 0 a7.5 7.5 0 1 0 -15 0zM1108.53 895.19 a7.5 7.5 0 1 0 15 0 a7.5 7.5 0 1 0 -15 0zM1043.58 857.69 a7.5 7.5 0 1 0 15 0 a7.5 7.5 0 1 0 -15 0zM1043.58 782.69 a7.5 7.5 0 1 0 15 0 a7.5 7.5 0 1 0 -15 0zM1238.44 295.19 a7.5 7.5 0 1 0 15 0 a7.5 7.5 0 1 0 -15 0zM1303.39 332.69 a7.5 7.5 0 1 0 15 0 a7.5 7.5 0 1 0 -15 0zM1303.39 407.69 a7.5 7.5 0 1 0 15 0 a7.5 7.5 0 1 0 -15 0zM1238.44 445.19 a7.5 7.5 0 1 0 15 0 a7.5 7.5 0 1 0 -15 0zM1173.49 407.69 a7.5 7.5 0 1 0 15 0 a7.5 7.5 0 1 0 -15 0zM1173.49 332.69 a7.5 7.5 0 1 0 15 0 a7.5 7.5 0 1 0 -15 0zM1238.44 745.19 a7.5 7.5 0 1 0 15 0 a7.5 7.5 0 1 0 -15 0zM1303.39 782.69 a7.5 7.5 0 1 0 15 0 a7.5 7.5 0 1 0 -15 0zM1303.39 857.69 a7.5 7.5 0 1 0 15 0 a7.5 7.5 0 1 0 -15 0zM1238.44 895.19 a7.5 7.5 0 1 0 15 0 a7.5 7.5 0 1 0 -15 0zM1303.39 182.69 a7.5 7.5 0 1 0 15 0 a7.5 7.5 0 1 0 -15 0zM1368.35 220.19 a7.5 7.5 0 1 0 15 0 a7.5 7.5 0 1 0 -15 0zM1368.35 295.19 a7.5 7.5 0 1 0 15 0 a7.5 7.5 0 1 0 -15 0zM1238.44 220.19 a7.5 7.5 0 1 0 15 0 a7.5 7.5 0 1 0 -15 0zM1368.35 520.19 a7.5 7.5 0 1 0 15 0 a7.5 7.5 0 1 0 -15 0zM1433.3 557.69 a7.5 7.5 0 1 0 15 0 a7.5 7.5 0 1 0 -15 0zM1433.3 632.69 a7.5 7.5 0 1 0 15 0 a7.5 7.5 0 1 0 -15 0zM1368.35 670.19 a7.5 7.5 0 1 0 15 0 a7.5 7.5 0 1 0 -15 0zM1303.39 632.69 a7.5 7.5 0 1 0 15 0 a7.5 7.5 0 1 0 -15 0zM1303.39 557.69 a7.5 7.5 0 1 0 15 0 a7.5 7.5 0 1 0 -15 0zM1433.3 182.69 a7.5 7.5 0 1 0 15 0 a7.5 7.5 0 1 0 -15 0zM1498.26 220.19 a7.5 7.5 0 1 0 15 0 a7.5 7.5 0 1 0 -15 0zM1498.26 295.19 a7.5 7.5 0 1 0 15 0 a7.5 7.5 0 1 0 -15 0zM1433.3 332.69 a7.5 7.5 0 1 0 15 0 a7.5 7.5 0 1 0 -15 0zM1433.3 407.69 a7.5 7.5 0 1 0 15 0 a7.5 7.5 0 1 0 -15 0zM1498.26 445.19 a7.5 7.5 0 1 0 15 0 a7.5 7.5 0 1 0 -15 0zM1498.26 520.19 a7.5 7.5 0 1 0 15 0 a7.5 7.5 0 1 0 -15 0zM1368.35 445.19 a7.5 7.5 0 1 0 15 0 a7.5 7.5 0 1 0 -15 0zM1563.21 407.69 a7.5 7.5 0 1 0 15 0 a7.5 7.5 0 1 0 -15 0zM1628.16 445.19 a7.5 7.5 0 1 0 15 0 a7.5 7.5 0 1 0 -15 0zM1628.16 520.19 a7.5 7.5 0 1 0 15 0 a7.5 7.5 0 1 0 -15 0zM1563.21 557.69 a7.5 7.5 0 1 0 15 0 a7.5 7.5 0 1 0 -15 0zM1628.16 970.19 a7.5 7.5 0 1 0 15 0 a7.5 7.5 0 1 0 -15 0zM1693.12 1007.69 a7.5 7.5 0 1 0 15 0 a7.5 7.5 0 1 0 -15 0zM1693.12 1082.69 a7.5 7.5 0 1 0 15 0 a7.5 7.5 0 1 0 -15 0zM1628.16 1120.19 a7.5 7.5 0 1 0 15 0 a7.5 7.5 0 1 0 -15 0zM1563.21 1082.69 a7.5 7.5 0 1 0 15 0 a7.5 7.5 0 1 0 -15 0zM1563.21 1007.69 a7.5 7.5 0 1 0 15 0 a7.5 7.5 0 1 0 -15 0zM1693.12 -42.31 a7.5 7.5 0 1 0 15 0 a7.5 7.5 0 1 0 -15 0zM1758.07 -4.81 a7.5 7.5 0 1 0 15 0 a7.5 7.5 0 1 0 -15 0zM1758.07 70.19 a7.5 7.5 0 1 0 15 0 a7.5 7.5 0 1 0 -15 0zM1693.12 107.69 a7.5 7.5 0 1 0 15 0 a7.5 7.5 0 1 0 -15 0zM1628.16 70.19 a7.5 7.5 0 1 0 15 0 a7.5 7.5 0 1 0 -15 0zM1628.16 -4.81 a7.5 7.5 0 1 0 15 0 a7.5 7.5 0 1 0 -15 0zM1693.12 407.69 a7.5 7.5 0 1 0 15 0 a7.5 7.5 0 1 0 -15 0zM1758.07 445.19 a7.5 7.5 0 1 0 15 0 a7.5 7.5 0 1 0 -15 0zM1758.07 520.19 a7.5 7.5 0 1 0 15 0 a7.5 7.5 0 1 0 -15 0zM1693.12 557.69 a7.5 7.5 0 1 0 15 0 a7.5 7.5 0 1 0 -15 0zM1823.02 -42.31 a7.5 7.5 0 1 0 15 0 a7.5 7.5 0 1 0 -15 0zM1887.98 -4.81 a7.5 7.5 0 1 0 15 0 a7.5 7.5 0 1 0 -15 0zM1887.98 70.19 a7.5 7.5 0 1 0 15 0 a7.5 7.5 0 1 0 -15 0zM1823.02 107.69 a7.5 7.5 0 1 0 15 0 a7.5 7.5 0 1 0 -15 0zM1823.02 182.69 a7.5 7.5 0 1 0 15 0 a7.5 7.5 0 1 0 -15 0zM1887.98 220.19 a7.5 7.5 0 1 0 15 0 a7.5 7.5 0 1 0 -15 0zM1887.98 295.19 a7.5 7.5 0 1 0 15 0 a7.5 7.5 0 1 0 -15 0zM1823.02 332.69 a7.5 7.5 0 1 0 15 0 a7.5 7.5 0 1 0 -15 0zM1758.07 295.19 a7.5 7.5 0 1 0 15 0 a7.5 7.5 0 1 0 -15 0zM1758.07 220.19 a7.5 7.5 0 1 0 15 0 a7.5 7.5 0 1 0 -15 0zM1952.93 332.69 a7.5 7.5 0 1 0 15 0 a7.5 7.5 0 1 0 -15 0zM1952.93 407.69 a7.5 7.5 0 1 0 15 0 a7.5 7.5 0 1 0 -15 0zM1887.98 445.19 a7.5 7.5 0 1 0 15 0 a7.5 7.5 0 1 0 -15 0zM1823.02 407.69 a7.5 7.5 0 1 0 15 0 a7.5 7.5 0 1 0 -15 0zM1823.02 632.69 a7.5 7.5 0 1 0 15 0 a7.5 7.5 0 1 0 -15 0zM1887.98 670.19 a7.5 7.5 0 1 0 15 0 a7.5 7.5 0 1 0 -15 0zM1887.98 745.19 a7.5 7.5 0 1 0 15 0 a7.5 7.5 0 1 0 -15 0zM1823.02 782.69 a7.5 7.5 0 1 0 15 0 a7.5 7.5 0 1 0 -15 0zM1758.07 745.19 a7.5 7.5 0 1 0 15 0 a7.5 7.5 0 1 0 -15 0zM1758.07 670.19 a7.5 7.5 0 1 0 15 0 a7.5 7.5 0 1 0 -15 0z" fill="#03305d"></path><path d="M125.92 264.76L169.22 289.76L169.22 339.76L125.92 364.76L82.61 339.76L82.61 289.76zM212.52 114.76L255.82 139.76L255.82 189.76L212.52 214.76L169.22 189.76L169.22 139.76zM255.82 189.76L299.13 214.76L299.13 264.76L255.82 289.76L212.52 264.76L212.52 214.76zM299.13 264.76L342.43 289.76L342.43 339.76L299.13 364.76L255.82 339.76L255.82 289.76zM342.43 489.76L385.73 514.76L385.73 564.76L342.43 589.76L299.13 564.76L299.13 514.76zM342.43 639.76L385.73 664.76L385.73 714.76L342.43 739.76L299.13 714.76L299.13 664.76zM385.73 864.76L429.03 889.76L429.03 939.76L385.73 964.76L342.43 939.76L342.43 889.76zM515.64 339.76L558.94 364.76L558.94 414.76L515.64 439.76L472.34 414.76L472.34 364.76zM515.64 489.76L558.94 514.76L558.94 564.76L515.64 589.76L472.34 564.76L472.34 514.76zM472.34 714.76L515.64 739.76L515.64 789.76L472.34 814.76L429.03 789.76L429.03 739.76zM472.34 864.76L515.64 889.76L515.64 939.76L472.34 964.76L429.03 939.76L429.03 889.76zM602.24 39.76L645.55 64.76L645.55 114.76L602.24 139.76L558.94 114.76L558.94 64.76zM558.94 414.76L602.24 439.76L602.24 489.76L558.94 514.76L515.64 489.76L515.64 439.76zM558.94 714.76L602.24 739.76L602.24 789.76L558.94 814.76L515.64 789.76L515.64 739.76zM602.24 939.76L645.55 964.76L645.55 1014.76L602.24 1039.76L558.94 1014.76L558.94 964.76zM558.94 1014.76L602.24 1039.76L602.24 1089.76L558.94 1114.76L515.64 1089.76L515.64 1039.76zM645.55 -35.24L688.85 -10.24L688.85 39.76L645.55 64.76L602.24 39.76L602.24 -10.24zM645.55 264.76L688.85 289.76L688.85 339.76L645.55 364.76L602.24 339.76L602.24 289.76zM688.85 639.76L732.15 664.76L732.15 714.76L688.85 739.76L645.55 714.76L645.55 664.76zM645.55 714.76L688.85 739.76L688.85 789.76L645.55 814.76L602.24 789.76L602.24 739.76zM732.15 -35.24L775.45 -10.24L775.45 39.76L732.15 64.76L688.85 39.76L688.85 -10.24zM775.45 189.76L818.76 214.76L818.76 264.76L775.45 289.76L732.15 264.76L732.15 214.76zM775.45 339.76L818.76 364.76L818.76 414.76L775.45 439.76L732.15 414.76L732.15 364.76zM775.45 489.76L818.76 514.76L818.76 564.76L775.45 589.76L732.15 564.76L732.15 514.76zM775.45 639.76L818.76 664.76L818.76 714.76L775.45 739.76L732.15 714.76L732.15 664.76zM732.15 714.76L775.45 739.76L775.45 789.76L732.15 814.76L688.85 789.76L688.85 739.76zM862.06 39.76L905.36 64.76L905.36 114.76L862.06 139.76L818.76 114.76L818.76 64.76zM818.76 114.76L862.06 139.76L862.06 189.76L818.76 214.76L775.45 189.76L775.45 139.76zM905.36 264.76L948.66 289.76L948.66 339.76L905.36 364.76L862.06 339.76L862.06 289.76zM948.66 339.76L991.97 364.76L991.97 414.76L948.66 439.76L905.36 414.76L905.36 364.76zM905.36 864.76L948.66 889.76L948.66 939.76L905.36 964.76L862.06 939.76L862.06 889.76zM991.97 714.76L1035.27 739.76L1035.27 789.76L991.97 814.76L948.66 789.76L948.66 739.76zM991.97 864.76L1035.27 889.76L1035.27 939.76L991.97 964.76L948.66 939.76L948.66 889.76zM1078.57 -35.24L1121.87 -10.24L1121.87 39.76L1078.57 64.76L1035.27 39.76L1035.27 -10.24zM1121.87 39.76L1165.17 64.76L1165.17 114.76L1121.87 139.76L1078.57 114.76L1078.57 64.76zM1078.57 714.76L1121.87 739.76L1121.87 789.76L1078.57 814.76L1035.27 789.76L1035.27 739.76zM1121.87 939.76L1165.17 964.76L1165.17 1014.76L1121.87 1039.76L1078.57 1014.76L1078.57 964.76zM1165.17 114.76L1208.48 139.76L1208.48 189.76L1165.17 214.76L1121.87 189.76L1121.87 139.76zM1165.17 714.76L1208.48 739.76L1208.48 789.76L1165.17 814.76L1121.87 789.76L1121.87 739.76zM1208.48 789.76L1251.78 814.76L1251.78 864.76L1208.48 889.76L1165.17 864.76L1165.17 814.76zM1208.48 939.76L1251.78 964.76L1251.78 1014.76L1208.48 1039.76L1165.17 1014.76L1165.17 964.76zM1295.08 189.76L1338.38 214.76L1338.38 264.76L1295.08 289.76L1251.78 264.76L1251.78 214.76zM1251.78 414.76L1295.08 439.76L1295.08 489.76L1251.78 514.76L1208.48 489.76L1208.48 439.76zM1251.78 714.76L1295.08 739.76L1295.08 789.76L1251.78 814.76L1208.48 789.76L1208.48 739.76zM1338.38 714.76L1381.69 739.76L1381.69 789.76L1338.38 814.76L1295.08 789.76L1295.08 739.76zM1424.99 -35.24L1468.29 -10.24L1468.29 39.76L1424.99 64.76L1381.69 39.76L1381.69 -10.24zM1424.99 114.76L1468.29 139.76L1468.29 189.76L1424.99 214.76L1381.69 189.76L1381.69 139.76zM1468.29 339.76L1511.6 364.76L1511.6 414.76L1468.29 439.76L1424.99 414.76L1424.99 364.76zM1468.29 489.76L1511.6 514.76L1511.6 564.76L1468.29 589.76L1424.99 564.76L1424.99 514.76zM1424.99 714.76L1468.29 739.76L1468.29 789.76L1424.99 814.76L1381.69 789.76L1381.69 739.76zM1424.99 1014.76L1468.29 1039.76L1468.29 1089.76L1424.99 1114.76L1381.69 1089.76L1381.69 1039.76zM1554.9 339.76L1598.2 364.76L1598.2 414.76L1554.9 439.76L1511.6 414.76L1511.6 364.76zM1554.9 939.76L1598.2 964.76L1598.2 1014.76L1554.9 1039.76L1511.6 1014.76L1511.6 964.76zM1511.6 1014.76L1554.9 1039.76L1554.9 1089.76L1511.6 1114.76L1468.29 1089.76L1468.29 1039.76zM1598.2 564.76L1641.5 589.76L1641.5 639.76L1598.2 664.76L1554.9 639.76L1554.9 589.76zM1641.5 639.76L1684.81 664.76L1684.81 714.76L1641.5 739.76L1598.2 714.76L1598.2 664.76zM1598.2 1014.76L1641.5 1039.76L1641.5 1089.76L1598.2 1114.76L1554.9 1089.76L1554.9 1039.76zM1684.81 414.76L1728.11 439.76L1728.11 489.76L1684.81 514.76L1641.5 489.76L1641.5 439.76zM1771.41 564.76L1814.71 589.76L1814.71 639.76L1771.41 664.76L1728.11 639.76L1728.11 589.76zM1814.71 789.76L1858.02 814.76L1858.02 864.76L1814.71 889.76L1771.41 864.76L1771.41 814.76zM1814.71 939.76L1858.02 964.76L1858.02 1014.76L1814.71 1039.76L1771.41 1014.76L1771.41 964.76zM1858.02 -35.24L1901.32 -10.24L1901.32 39.76L1858.02 64.76L1814.71 39.76L1814.71 -10.24zM1901.32 39.76L1944.62 64.76L1944.62 114.76L1901.32 139.76L1858.02 114.76L1858.02 64.76zM1858.02 114.76L1901.32 139.76L1901.32 189.76L1858.02 214.76L1814.71 189.76L1814.71 139.76zM1858.02 864.76L1901.32 889.76L1901.32 939.76L1858.02 964.76L1814.71 939.76L1814.71 889.76zM1901.32 939.76L1944.62 964.76L1944.62 1014.76L1901.32 1039.76L1858.02 1014.76L1858.02 964.76zM1944.62 714.76L1987.92 739.76L1987.92 789.76L1944.62 814.76L1901.32 789.76L1901.32 739.76z" stroke="rgba(6, 80, 156, 0.93)" stroke-width="2"></path></g><defs><mask id="SvgjsMask1029"><rect width="1920" height="1080" fill="#ffffff"></rect></mask></defs></svg>